<svg width="75" height="75" viewBox="0 0 75 75" fill="none" xmlns="http://www.w3.org/2000/svg">
<path d="M28.125 63.2812C27.1979 63.2812 26.2916 63.5562 25.5208 64.0712C24.7499 64.5863 24.1491 65.3184 23.7943 66.1749C23.4395 67.0315 23.3467 67.974 23.5276 68.8832C23.7084 69.7925 24.1549 70.6278 24.8104 71.2833C25.466 71.9389 26.3012 72.3853 27.2105 72.5662C28.1198 72.7471 29.0623 72.6542 29.9188 72.2994C30.7754 71.9447 31.5074 71.3439 32.0225 70.573C32.5376 69.8021 32.8125 68.8959 32.8125 67.9688C32.8125 66.7256 32.3186 65.5333 31.4396 64.6542C30.5605 63.7751 29.3682 63.2812 28.125 63.2812ZM28.125 70.3125C27.6615 70.3125 27.2083 70.1751 26.8229 69.9175C26.4375 69.66 26.1371 69.2939 25.9597 68.8657C25.7823 68.4374 25.7359 67.9662 25.8263 67.5115C25.9167 67.0569 26.1399 66.6393 26.4677 66.3115C26.7955 65.9837 27.2131 65.7605 27.6678 65.67C28.1224 65.5796 28.5937 65.626 29.0219 65.8034C29.4502 65.9808 29.8162 66.2812 30.0738 66.6666C30.3313 67.0521 30.4688 67.5052 30.4688 67.9688C30.4688 68.5904 30.2218 69.1865 29.7823 69.626C29.3427 70.0656 28.7466 70.3125 28.125 70.3125Z" fill="#3F2355"/>
<path d="M29.7903 45.0844C30.2799 43.2531 30.1194 41.3087 29.3363 39.5824C28.5532 37.8561 27.1958 36.4546 25.4954 35.6168C23.7949 34.779 21.8566 34.5566 20.0106 34.9875C18.1646 35.4184 16.525 36.4759 15.3713 37.98C14.2175 39.4841 13.6208 41.3416 13.6829 43.2362C13.7449 45.1309 14.4619 46.9454 15.7117 48.3707C16.9615 49.796 18.6667 50.744 20.537 51.0531C22.4072 51.3622 24.3268 51.0134 25.9688 50.0661C26.9036 49.5297 27.7227 48.8132 28.3786 47.9581C29.0346 47.103 29.5144 46.1263 29.7903 45.0844ZM18.9914 37.9794C20.3541 38.8176 21.4828 39.9866 22.2727 41.3778L20.3016 42.5145C19.4899 41.1372 19.0393 39.5773 18.9914 37.9794ZM23.4375 43.4075C24.2474 44.7857 24.6964 46.346 24.743 47.9438C23.383 47.1042 22.2566 45.9354 21.4676 44.5454L23.4375 43.4075ZM26.8711 45.9551C26.5529 44.6642 26.0808 43.4162 25.4649 42.238L27.4266 41.1059C27.6882 41.9066 27.774 42.7542 27.6784 43.591C27.5827 44.4278 27.3078 45.2342 26.8723 45.9551H26.8711ZM26.2407 39.0821L24.2965 40.2048C23.5822 39.0743 22.7334 38.0347 21.7688 37.1087H21.8567C22.6855 37.1093 23.5048 37.2855 24.2607 37.6256C25.0165 37.9658 25.6917 38.4622 26.2418 39.0821H26.2407ZM16.8528 39.9821C17.1738 41.2692 17.6479 42.5132 18.2649 43.6876L16.309 44.8161C16.0477 44.0184 15.9612 43.1739 16.0552 42.3398C16.1492 41.5057 16.4216 40.7016 16.8539 39.9821H16.8528ZM17.4809 46.8469L19.4367 45.7173C20.1476 46.8395 20.9916 47.8716 21.9504 48.7911C21.1097 48.8066 20.2756 48.641 19.5045 48.3056C18.7335 47.9701 18.0438 47.4726 17.4821 46.8469H17.4809Z" fill="#3F2355"/>
<path d="M24.2578 57.641C24.4636 57.6414 24.6658 57.5872 24.8438 57.4839L33.9774 52.2105C34.2467 52.0551 34.4432 51.7991 34.5238 51.4988C34.6043 51.1985 34.5623 50.8784 34.4069 50.6091C34.2515 50.3398 33.9954 50.1433 33.6951 50.0627C33.3948 49.9822 33.0748 50.0242 32.8055 50.1796L23.6719 55.4531C23.4479 55.5818 23.2728 55.7809 23.1737 56.0195C23.0745 56.2581 23.057 56.5227 23.1239 56.7723C23.1907 57.0218 23.3381 57.2423 23.5432 57.3994C23.7483 57.5565 23.9995 57.6414 24.2578 57.641Z" fill="#3F2355"/>
<path d="M60.9797 39.7712C61.2488 39.9241 61.5673 39.9644 61.866 39.8834C62.1646 39.8023 62.4191 39.6064 62.5738 39.3384C62.7285 39.0704 62.771 38.7521 62.6919 38.4529C62.6128 38.1537 62.4186 37.898 62.1516 37.7415L53.011 32.468C52.8777 32.3899 52.7302 32.3389 52.5771 32.3179C52.424 32.297 52.2682 32.3066 52.1188 32.3461C51.9694 32.3856 51.8293 32.4542 51.7065 32.5481C51.5837 32.642 51.4807 32.7592 51.4035 32.8931C51.3262 33.0269 51.2762 33.1747 51.2562 33.328C51.2363 33.4812 51.2469 33.6369 51.2874 33.786C51.3279 33.9352 51.3975 34.0749 51.4922 34.197C51.5869 34.3191 51.7048 34.4213 51.8391 34.4977L60.9797 39.7712Z" fill="#3F2355"/>
<path d="M49.0723 36.9563C48.9169 37.2254 48.8748 37.5453 48.9552 37.8455C49.0356 38.1457 49.232 38.4016 49.5012 38.557L52.5481 40.3149C52.8171 40.4678 53.1357 40.5081 53.4343 40.4271C53.7329 40.346 53.9874 40.1501 54.1421 39.8821C54.2969 39.6141 54.3393 39.2958 54.2602 38.9966C54.1811 38.6974 53.9869 38.4417 53.7199 38.2852L50.6731 36.5274C50.4039 36.372 50.084 36.3299 49.7838 36.4103C49.4836 36.4907 49.2277 36.6871 49.0723 36.9563Z" fill="#3F2355"/>
<path d="M47.5138 34.2943C48.1389 34.1267 48.5098 33.4841 48.3422 32.8589C48.1746 32.2338 47.532 31.8629 46.9069 32.0305C46.2817 32.1981 45.9108 32.8408 46.0784 33.4659C46.246 34.091 46.8887 34.4619 47.5138 34.2943Z" fill="#3F2355"/>
<path d="M69.1407 43.3594H65.6743L68.9836 37.6254C69.139 37.3562 69.1811 37.0364 69.1007 36.7362C69.0203 36.436 68.8239 36.18 68.5547 36.0246L46.7578 23.4375H55.0782C56.0106 23.4375 56.9048 23.8079 57.5641 24.4672C58.2234 25.1265 58.5938 26.0207 58.5938 26.9531C58.5938 27.2639 58.7173 27.562 58.937 27.7818C59.1568 28.0015 59.4549 28.125 59.7657 28.125C60.0765 28.125 60.3745 28.0015 60.5943 27.7818C60.8141 27.562 60.9375 27.2639 60.9375 26.9531C60.9357 25.3997 60.3177 23.9104 59.2193 22.812C58.1209 21.7135 56.6316 21.0956 55.0782 21.0938V19.9219C55.0752 19.1974 54.8484 18.4914 54.4288 17.9007C54.0093 17.31 53.4175 16.8634 52.7344 16.6219V8.20312C52.7325 6.64969 52.1146 5.16042 51.0162 4.06198C49.9177 2.96353 48.4285 2.34561 46.875 2.34375H43.3594C43.0486 2.34375 42.7505 2.46721 42.5308 2.68698C42.311 2.90675 42.1875 3.20482 42.1875 3.51562C42.1875 3.82643 42.311 4.1245 42.5308 4.34427C42.7505 4.56403 43.0486 4.6875 43.3594 4.6875H46.875C47.8074 4.6875 48.7016 5.0579 49.361 5.7172C50.0203 6.37651 50.3907 7.27072 50.3907 8.20312V16.4062H48.0469V8.20312C48.0469 7.89232 47.9234 7.59425 47.7037 7.37448C47.4839 7.15472 47.1858 7.03125 46.875 7.03125H32.8125C32.5017 7.03125 32.2037 7.15472 31.9839 7.37448C31.7641 7.59425 31.6407 7.89232 31.6407 8.20312V16.4062H29.2969V8.20312C29.2969 7.27072 29.6673 6.37651 30.3266 5.7172C30.9859 5.0579 31.8801 4.6875 32.8125 4.6875H38.6719C38.9827 4.6875 39.2808 4.56403 39.5005 4.34427C39.7203 4.1245 39.8438 3.82643 39.8438 3.51562C39.8438 3.20482 39.7203 2.90675 39.5005 2.68698C39.2808 2.46721 38.9827 2.34375 38.6719 2.34375H32.8125C31.2591 2.34561 29.7698 2.96353 28.6714 4.06198C27.5729 5.16042 26.955 6.64969 26.9532 8.20312V16.6219C26.2701 16.8634 25.6783 17.31 25.2587 17.9007C24.8392 18.4914 24.6124 19.1974 24.6094 19.9219V21.0938C23.056 21.0956 21.5667 21.7135 20.4683 22.812C19.3698 23.9104 18.7519 25.3997 18.75 26.9531V29.8758L5.27347 37.657C5.00432 37.8124 4.80793 38.0684 4.72749 38.3686C4.64706 38.6688 4.68917 38.9887 4.84456 39.2578L20.0789 65.6449C20.2343 65.9141 20.4903 66.1105 20.7905 66.1909C21.0907 66.2713 21.4106 66.2292 21.6797 66.0738L41.9766 54.3551C42.11 54.2782 42.2269 54.1759 42.3207 54.0538C42.4145 53.9318 42.4833 53.7924 42.5232 53.6438C42.5632 53.4951 42.5734 53.3401 42.5534 53.1874C42.5334 53.0348 42.4836 52.8876 42.4067 52.7543L36.2332 42.0621C36.1569 41.9278 36.0546 41.8098 35.9325 41.7152C35.8104 41.6205 35.6707 41.5509 35.5215 41.5104C35.3724 41.4699 35.2167 41.4593 35.0635 41.4792C34.9102 41.4991 34.7624 41.5492 34.6286 41.6264C34.4947 41.7037 34.3775 41.8067 34.2836 41.9295C34.1897 42.0522 34.1211 42.1924 34.0816 42.3418C34.0421 42.4912 34.0325 42.6469 34.0534 42.8001C34.0744 42.9532 34.1254 43.1007 34.2035 43.234L39.7899 52.9102L21.5227 63.457L7.46019 39.1008L25.7274 28.5539L31.8598 39.1734C32.0163 39.4404 32.272 39.6346 32.5712 39.7137C32.8704 39.7928 33.1887 39.7504 33.4567 39.5956C33.7247 39.4409 33.9206 39.1865 34.0017 38.8878C34.0828 38.5892 34.0424 38.2706 33.8895 38.0016L27.1723 26.3672C27.0953 26.2338 26.9929 26.1168 26.8707 26.023C26.7485 25.9293 26.609 25.8605 26.4602 25.8207C26.3115 25.7808 26.1563 25.7707 26.0036 25.7909C25.8509 25.8111 25.7037 25.8612 25.5703 25.9383L21.0938 28.5223V26.9531C21.0938 26.0207 21.4642 25.1265 22.1235 24.4672C22.7828 23.8079 23.677 23.4375 24.6094 23.4375H41.993L35.5653 34.5703C35.4099 34.8395 35.3678 35.1593 35.4482 35.4595C35.5286 35.7597 35.725 36.0157 35.9942 36.1711L45.1172 41.4387C45.3865 41.5941 45.7065 41.6361 46.0069 41.5556C46.3072 41.475 46.5632 41.2785 46.7186 41.0092C46.874 40.7399 46.916 40.4199 46.8355 40.1195C46.755 39.8192 46.5584 39.5632 46.2891 39.4078L45.286 38.8289L45.8719 37.8141C45.9489 37.6807 45.9988 37.5335 46.0188 37.3809C46.0389 37.2282 46.0287 37.0731 45.9888 36.9244C45.9489 36.7757 45.8802 36.6363 45.7864 36.5142C45.6926 36.3921 45.5758 36.2896 45.4424 36.2127C45.3091 36.1357 45.1619 36.0858 45.0092 36.0658C44.8566 36.0457 44.7015 36.0559 44.5528 36.0958C44.4041 36.1357 44.2647 36.2044 44.1426 36.2982C44.0205 36.392 43.918 36.5088 43.841 36.6422L43.2551 37.657L38.1821 34.7273L44.0414 24.5789L49.1145 27.5086L48.5285 28.5246C48.3731 28.7939 48.3311 29.1139 48.4116 29.4142C48.4922 29.7146 48.6887 29.9706 48.958 30.126C49.2274 30.2814 49.5474 30.3234 49.8477 30.2429C50.148 30.1623 50.404 29.9658 50.5594 29.6965L51.1453 28.6816L66.368 37.4707L62.9672 43.3594H60.2508C60.3919 43.0925 60.4246 42.7815 60.3421 42.4912C60.2596 42.2008 60.0682 41.9535 59.8078 41.8008L57.7782 40.6289C57.6448 40.5507 57.4974 40.4997 57.3442 40.4788C57.1911 40.4579 57.0354 40.4674 56.886 40.5069C56.7365 40.5464 56.5964 40.6151 56.4737 40.709C56.3509 40.8028 56.2479 40.9201 56.1706 41.0539C56.0933 41.1878 56.0433 41.3356 56.0234 41.4888C56.0035 41.6421 56.0141 41.7978 56.0546 41.9469C56.095 42.0961 56.1646 42.2357 56.2593 42.3579C56.354 42.48 56.4719 42.5822 56.6063 42.6586L57.8192 43.3617H48.0469C47.7361 43.3617 47.438 43.4852 47.2183 43.705C46.9985 43.9247 46.875 44.2228 46.875 44.5336V58.5938C46.875 58.9046 46.9985 59.2026 47.2183 59.4224C47.438 59.6422 47.7361 59.7656 48.0469 59.7656H58.5938C58.5938 60.698 58.2234 61.5922 57.5641 62.2515C56.9048 62.9109 56.0106 63.2812 55.0782 63.2812H35.1563C34.8455 63.2812 34.5474 63.4047 34.3276 63.6245C34.1079 63.8443 33.9844 64.1423 33.9844 64.4531C33.9844 64.7639 34.1079 65.062 34.3276 65.2818C34.5474 65.5015 34.8455 65.625 35.1563 65.625H47.5266C47.1048 66.3344 46.8799 67.1435 46.875 67.9688C46.8697 68.6934 47.0324 69.4094 47.3504 70.0605C47.6684 70.7117 48.133 71.2803 48.7078 71.7216C49.2825 72.1629 49.9518 72.4649 50.663 72.6039C51.3742 72.743 52.1079 72.7152 52.8066 72.5229C53.5052 72.3306 54.1498 71.9789 54.6896 71.4954C55.2294 71.012 55.6498 70.41 55.9177 69.7366C56.1857 69.0633 56.2938 68.3371 56.2338 67.6149C56.1737 66.8928 55.947 66.1944 55.5715 65.5746C57.0309 65.4543 58.392 64.7907 59.3857 63.715C60.3793 62.6393 60.9331 61.23 60.9375 59.7656H69.1407C69.4515 59.7656 69.7495 59.6422 69.9693 59.4224C70.1891 59.2026 70.3125 58.9046 70.3125 58.5938V44.5312C70.3125 44.2204 70.1891 43.9224 69.9693 43.7026C69.7495 43.4828 69.4515 43.3594 69.1407 43.3594ZM51.5625 18.75C51.8733 18.75 52.1714 18.8735 52.3912 19.0932C52.6109 19.313 52.7344 19.6111 52.7344 19.9219V21.0938H45.7032V19.9219C45.7032 19.6111 45.8266 19.313 46.0464 19.0932C46.2662 18.8735 46.5642 18.75 46.875 18.75H51.5625ZM45.7032 9.375V16.6219C45.0201 16.8634 44.4283 17.31 44.0087 17.9007C43.5892 18.4914 43.3624 19.1974 43.3594 19.9219V21.0938H36.3282V19.9219C36.3252 19.1974 36.0984 18.4914 35.6788 17.9007C35.2593 17.31 34.6675 16.8634 33.9844 16.6219V9.375H45.7032ZM26.9532 21.0938V19.9219C26.9532 19.6111 27.0766 19.313 27.2964 19.0932C27.5162 18.8735 27.8142 18.75 28.125 18.75H32.8125C33.1233 18.75 33.4214 18.8735 33.6412 19.0932C33.8609 19.313 33.9844 19.6111 33.9844 19.9219V21.0938H26.9532ZM51.5625 70.3125C51.099 70.3125 50.6458 70.175 50.2604 69.9175C49.875 69.66 49.5746 69.2939 49.3972 68.8657C49.2198 68.4374 49.1734 67.9661 49.2638 67.5115C49.3543 67.0569 49.5775 66.6392 49.9053 66.3115C50.233 65.9837 50.6506 65.7605 51.1053 65.67C51.5599 65.5796 52.0312 65.626 52.4594 65.8034C52.8877 65.9808 53.2538 66.2812 53.5113 66.6666C53.7688 67.0521 53.9063 67.5052 53.9063 67.9688C53.9063 68.5904 53.6594 69.1865 53.2198 69.626C52.7803 70.0656 52.1841 70.3125 51.5625 70.3125ZM67.9688 45.7031V48.0469H49.2188V45.7031H67.9688ZM49.2188 57.4219V50.3906H67.9688V57.4219H49.2188Z" fill="#3F2355"/>
<path d="M55.0782 52.7344H52.7344C52.4236 52.7344 52.1256 52.8578 51.9058 53.0776C51.686 53.2974 51.5626 53.5954 51.5626 53.9062C51.5626 54.2171 51.686 54.5151 51.9058 54.7349C52.1256 54.9547 52.4236 55.0781 52.7344 55.0781H55.0782C55.389 55.0781 55.6871 54.9547 55.9068 54.7349C56.1266 54.5151 56.2501 54.2171 56.2501 53.9062C56.2501 53.5954 56.1266 53.2974 55.9068 53.0776C55.6871 52.8578 55.389 52.7344 55.0782 52.7344Z" fill="#3F2355"/>
</svg>
