<svg width="75" height="75" viewBox="0 0 75 75" fill="none" xmlns="http://www.w3.org/2000/svg">
<g clip-path="url(#clip0_5_212)">
<path d="M61.4544 22.2669C59.3477 11.1456 49.8304 2.97773 38.5986 2.47529V1.09863C38.5986 0.491748 38.1067 0 37.5 0C36.8932 0 36.4013 0.491748 36.4013 1.09863V2.47852C32.4737 2.65532 28.64 3.77388 25.2517 5.74614C24.7273 6.05127 24.5497 6.72393 24.8549 7.24819C25.1601 7.77261 25.8328 7.95059 26.357 7.64502C28.4875 6.40503 30.8119 5.53608 33.2248 5.06382C32.2693 6.33325 31.513 7.8895 30.9458 9.32124C29.5271 12.9026 28.4698 17.6035 27.8582 23.0156C25.973 21.3718 23.5614 20.4533 21.0066 20.4533C19.1988 20.4533 17.4477 20.9128 15.891 21.7891C16.893 17.4614 19.1472 13.5864 22.4466 10.5369C22.8923 10.125 22.9196 9.42993 22.5077 8.98433C22.0958 8.53872 21.4008 8.51133 20.9551 8.92324C17.0834 12.5017 14.5213 17.116 13.5455 22.2672C13.4094 22.9854 13.7166 23.7082 14.3283 24.108C14.9477 24.5131 15.7431 24.5042 16.3552 24.0855C17.7278 23.1469 19.3362 22.6506 21.0066 22.6506C23.5384 22.6506 25.895 23.7894 27.4719 25.7748C28.2495 26.7536 29.7807 26.678 30.4422 25.5886C31.7612 23.4167 33.9373 22.0087 36.4015 21.6844V27.0656C35.7703 27.2697 35.2022 27.6475 34.7661 28.1692L32.6956 30.6456C32.4489 30.9415 32.0335 31.0315 31.6859 30.8653L28.5436 29.3609C27.3899 28.8086 25.9989 29.1541 25.236 30.1818L23.9726 31.8836C23.1115 33.0463 23.31 34.6799 24.4248 35.6032L27.2594 37.9474C25.9293 38.555 25.0021 39.8971 25.0021 41.4524C25.0021 43.3893 26.4391 44.996 28.3028 45.2644C28.1594 46.0315 28.0443 46.3229 28.0028 46.4093C27.5175 47.4297 25.0441 49.9891 23.599 51.3625C23.5752 51.3853 23.5523 51.409 23.5305 51.4337C19.4182 56.1141 18.7576 62.8772 21.8868 68.263C24.3014 72.4185 28.7865 75 33.5918 75H41.4082C46.2134 75 50.6984 72.4185 53.1129 68.2632C54.4875 65.8983 55.1617 63.2046 55.0627 60.4729C55.0407 59.8664 54.5298 59.3952 53.925 59.4146C53.3185 59.4366 52.8448 59.9459 52.8668 60.5524C52.9507 62.8688 52.3788 65.1533 51.213 67.1591C49.1904 70.6402 45.4334 72.8027 41.4082 72.8027H33.5918C29.5665 72.8027 25.8095 70.6402 23.7868 67.1591C21.1407 62.6048 21.6899 56.8888 25.1497 52.9201C25.7061 52.3896 29.1895 49.0305 29.9865 47.3546C30.0681 47.1838 30.289 46.7209 30.527 45.3042H44.4732C44.7113 46.7209 44.932 47.1836 45.0127 47.3527C45.8106 49.0307 49.2943 52.3898 49.8504 52.9201C50.6516 53.8387 51.3101 54.8679 51.8078 55.9797C51.9905 56.3877 52.3913 56.6298 52.8112 56.6298C52.9612 56.6298 53.1137 56.5989 53.2596 56.5337C53.8133 56.2857 54.0613 55.6358 53.8133 55.0821C53.2189 53.7545 52.4304 52.5271 51.4693 51.4337C51.4476 51.409 51.4248 51.3853 51.4009 51.3627C49.9561 49.9897 47.4829 47.4309 46.9963 46.4076C46.9555 46.3223 46.8405 46.0314 46.6971 45.2644C48.5609 44.996 49.9979 43.3891 49.9979 41.4524C49.9979 39.8971 49.0708 38.5551 47.7405 37.9474L50.5758 35.6027C51.6901 34.6799 51.8884 33.0463 51.0266 31.8826L49.7641 30.1819C49.0012 29.1542 47.61 28.8088 46.4562 29.361L43.3147 30.8651C42.9665 31.0317 42.551 30.9415 42.3038 30.6448L40.2341 28.1695C39.7979 27.6476 39.2298 27.2698 38.5986 27.0658V21.6841C41.0626 22.0084 43.2388 23.4164 44.5579 25.5883C45.2187 26.6767 46.7464 26.759 47.5281 25.7745C49.105 23.7891 51.4617 22.6503 53.9935 22.6503C55.6639 22.6503 57.2723 23.1466 58.645 24.0853C59.257 24.5036 60.0526 24.5127 60.6717 24.1077C61.2833 23.7079 61.5905 22.9852 61.4544 22.2669ZM46.1456 43.1068H28.8543C27.9419 43.1068 27.1995 42.3646 27.1995 41.452C27.1995 40.5394 27.9419 39.7972 28.8543 39.7972H46.1458C47.0582 39.7972 47.8006 40.5394 47.8006 41.452C47.8006 42.3646 47.0581 43.1068 46.1456 43.1068ZM40.6173 32.0528C41.5082 33.1207 43.0071 33.4471 44.263 32.8468L47.405 31.3424C47.6121 31.2432 47.8621 31.3059 47.9998 31.4912L49.2616 33.1909C49.4282 33.4157 49.3898 33.7317 49.1749 33.9097L44.7126 37.5999H30.2875L25.8258 33.9101C25.6103 33.7317 25.5719 33.4157 25.7376 33.192L27.0003 31.4914C27.1378 31.3059 27.3882 31.2435 27.595 31.3425L30.7377 32.8471C31.993 33.4471 33.4919 33.1206 34.382 32.0537L36.4519 29.5781C36.7117 29.2673 37.0938 29.0889 37.5001 29.0889C37.9065 29.0889 38.2884 29.2673 38.5484 29.5783L40.6173 32.0528ZM37.5 19.4147C34.6842 19.4147 32.0685 20.5162 30.1374 22.4439C31.5603 10.8608 34.8778 4.64795 37.5 4.64795C40.1222 4.64795 43.4396 10.8608 44.8626 22.4438C42.9315 20.5162 40.3157 19.4147 37.5 19.4147ZM53.9934 20.453C51.4385 20.453 49.027 21.3716 47.1417 23.0153C46.5301 17.6032 45.473 12.9023 44.0541 9.32095C43.4866 7.88848 42.7299 6.33135 41.7736 5.06162C50.235 6.71953 57.1189 13.2091 59.1086 21.7885C57.5521 20.9125 55.801 20.453 53.9934 20.453Z" fill="#3F2355"/>
<path d="M37.5 65.1544C38.1067 65.1544 38.5986 64.6626 38.5986 64.0558V63.2643C40.4518 63.1449 41.9231 61.6001 41.9231 59.7172C41.9231 57.7566 40.3282 56.1619 38.3678 56.1619H36.6322C35.8834 56.1619 35.2742 55.5526 35.2742 54.8038C35.2742 54.1338 35.7624 53.577 36.4014 53.4668V53.8118C36.4014 54.4187 36.8933 54.9104 37.5 54.9104C38.1067 54.9104 38.5986 54.4187 38.5986 53.8118V53.4456H39.7991C40.4058 53.4456 40.8977 52.9539 40.8977 52.347C40.8977 51.7401 40.4058 51.2483 39.7991 51.2483H38.5986V50.4651C38.5986 49.8582 38.1067 49.3665 37.5 49.3665C36.8933 49.3665 36.4014 49.8582 36.4014 50.4651V51.2565C34.5482 51.3759 33.0769 52.9208 33.0769 54.8037C33.0769 56.7642 34.6718 58.359 36.6322 58.359H38.3678C39.1166 58.359 39.7258 58.9682 39.7258 59.717C39.7258 60.3871 39.2376 60.9438 38.5986 61.054V60.709C38.5986 60.1021 38.1067 59.6104 37.5 59.6104C36.8933 59.6104 36.4014 60.1021 36.4014 60.709V61.0752H35.2009C34.5942 61.0752 34.1023 61.567 34.1023 62.1739C34.1023 62.7808 34.5942 63.2725 35.2009 63.2725H36.4014V64.0558C36.4014 64.6626 36.8933 65.1544 37.5 65.1544Z" fill="#3F2355"/>
</g>
<defs>
<clipPath id="clip0_5_212">
<rect width="75" height="75" fill="white"/>
</clipPath>
</defs>
</svg>
