<svg width="75" height="75" viewBox="0 0 75 75" fill="none" xmlns="http://www.w3.org/2000/svg">
<path d="M73.5787 60.6305C70.9403 56.0035 66.1046 55.1373 65.1609 55.0111C65.1059 55.0036 65.0509 54.9999 64.9947 54.9999H51.7636L51.2399 54.4762C51.9136 54.2412 52.5585 53.9337 53.156 53.5613C53.7696 53.1788 54.2908 52.7489 54.752 52.3027L59.6515 53.7025L60.3377 51.299L56.4181 50.1791C56.9356 49.2955 57.2605 48.4643 57.4417 47.8619C57.4767 47.7444 57.4955 47.6232 57.4955 47.5007V44.9322L60.4877 43.6498L59.504 41.3526L57.4955 42.2137V41.2514C57.4955 41.0251 57.4342 40.8027 57.3168 40.6077L53.5672 34.3584C53.3697 34.0284 53.0297 33.8084 52.6485 33.7609C52.2723 33.7197 51.8861 33.8447 51.6124 34.1184L48.229 37.5018H47.4966V21.771L49.2639 20.0037H50.8675L54.3021 22.2934C54.877 22.6771 55.6519 22.5209 56.0356 21.9472L58.5354 18.1976C58.8153 17.7777 58.8153 17.2315 58.5354 16.8115L53.5359 9.31232C53.3034 8.96361 52.9135 8.75488 52.496 8.75488H48.7464C48.2727 8.75488 47.8403 9.02235 47.6278 9.44606L45.4743 13.7543H32.0208L29.866 9.44606C29.6548 9.02235 29.2223 8.75488 28.7486 8.75488H23.7491C23.3454 8.75488 22.9667 8.94986 22.733 9.27858L16.4837 18.0276C16.1287 18.5238 16.185 19.205 16.6162 19.6375L19.1159 22.1372C19.5371 22.5596 20.197 22.6221 20.6932 22.2934L24.1279 20.0037H26.9813L27.4987 20.5211V34.1071C24.1991 35.3057 15.1901 39.4178 11.3317 49.5567C9.05574 55.5386 9.56069 61.1229 10.3993 64.7813L7.50091 63.0415V58.7495C7.50091 57.3196 6.706 56.0347 5.42864 55.3961C4.14877 54.7561 2.64394 54.8936 1.50031 55.751C0.561664 56.456 0.00172424 57.5771 0.00172424 58.7495V67.4985C0.00172424 67.9297 0.2242 68.3297 0.589161 68.5584L10.5881 74.8077C10.7868 74.9314 11.0155 74.9977 11.2505 74.9977H36.2478H41.2472H67.4944C67.6881 74.9977 67.8806 74.9527 68.0531 74.8665L73.0526 72.3667C73.2788 72.2542 73.4638 72.0755 73.5862 71.8555C73.7162 71.6231 76.7059 66.1087 73.5787 60.6305ZM39.9986 62.4916L32.5969 62.4678L32.5894 64.9675L39.9974 64.9913V72.498H37.4977C37.4977 69.7408 35.2554 67.4985 32.4982 67.4985H29.9985C29.9985 61.2967 24.9528 56.2497 18.7497 56.2497H17.4998V58.7495H18.7497C23.5729 58.7495 27.4987 62.674 27.4987 67.4985V68.7484C27.4987 69.4383 28.0574 69.9982 28.7486 69.9982H32.4982C33.8768 69.9982 34.9979 71.1194 34.9979 72.498H11.6092L2.50145 66.8061V58.7495C2.50145 58.3582 2.68768 57.9845 3.00015 57.7496C3.38761 57.4596 3.8763 57.4146 4.31001 57.6321C4.74246 57.8483 5.00118 58.2658 5.00118 58.7495V63.7489C5.00118 64.1876 5.23241 64.5951 5.60737 64.82L11.8567 68.5696C12.3104 68.8421 12.8878 68.7996 13.2965 68.4609C13.704 68.1222 13.8552 67.5647 13.6727 67.0673C12.7378 64.5226 10.8655 57.8083 13.6677 50.4441C13.8515 49.9604 14.0602 49.5055 14.2689 49.0518L14.2714 49.053C18.4797 39.9077 27.3775 36.7368 29.1198 36.1944C29.6435 36.0332 29.9985 35.5495 29.9985 35.002V20.0037C29.9985 19.6724 29.8672 19.3537 29.6323 19.12L28.3824 17.8701C28.1487 17.6352 27.8312 17.5039 27.4987 17.5039H23.7491C23.5029 17.5039 23.2605 17.5777 23.0555 17.7139L20.1583 19.6449L19.1321 18.6188L24.3928 11.2546H27.9762L30.131 15.5629C30.3422 15.9866 30.7746 16.2541 31.2483 16.2541H46.2467C46.7204 16.2541 47.1529 15.9866 47.3653 15.5629L49.5189 11.2546H51.8274L55.9932 17.5039L54.6496 19.52L51.9398 17.7139C51.7349 17.5777 51.4924 17.5039 51.2462 17.5039H48.7464C48.414 17.5039 48.0965 17.6352 47.8628 17.8701L45.3631 20.3699C45.1281 20.6036 44.9968 20.9223 44.9968 21.2535V37.5018H41.7647L38.3813 34.1184C38.1088 33.8447 37.7251 33.7159 37.3452 33.7609C36.9627 33.8084 36.624 34.0284 36.4265 34.3584L32.6769 40.6077C32.5594 40.8027 32.4982 41.0251 32.4982 41.2514V42.2137L30.4909 41.3538L29.5073 43.6511L32.4982 44.9322V46.9032V47.5007C32.4982 47.6232 32.5169 47.7444 32.5519 47.8619C32.7819 48.6268 33.2356 49.7542 34.0418 50.8991L29.5598 52.5801L30.4384 54.9211L35.8803 52.8801C36.1753 53.1176 36.494 53.3463 36.839 53.5613C37.7976 54.1587 38.8725 54.5862 39.9986 54.8236V62.4916ZM71.559 70.3182L67.1994 72.498H55.8957L54.9958 69.7958V66.6273L56.5956 64.2276C56.7943 63.9276 57.1293 63.7489 57.488 63.7489C58.0279 63.7489 58.3054 64.1051 58.3991 64.2576C58.4941 64.4113 58.6879 64.8188 58.4466 65.3L57.6267 66.9398C57.3868 67.421 57.4805 68.0022 57.8617 68.3822L59.1116 69.632C59.3453 69.867 59.6628 69.9982 59.9952 69.9982H66.2445V67.4985H60.5127L60.2664 67.2523L60.6839 66.4186C61.2413 65.3037 61.1813 64.0039 60.5264 62.944C59.8715 61.8841 58.7341 61.2492 57.488 61.2492C56.2919 61.2492 55.1807 61.8441 54.5158 62.839L52.706 65.555C52.5698 65.7612 52.496 66.0024 52.496 66.2486V69.9982C52.496 70.132 52.5185 70.2657 52.561 70.3932L53.2622 72.498H48.7464V63.7489H46.2467V72.498H42.4971V63.7452V53.75C42.4971 53.1051 42.0059 52.5651 41.3635 52.5051C40.4486 52.4201 39.5899 52.1752 38.7963 51.7852L40.4373 51.1703L39.5587 48.8293L36.484 49.9829C35.6729 49.0255 35.2267 48.0131 34.9979 47.3094V46.902V46.0021L38.2551 47.3982L39.2387 45.1009L34.9979 43.2849V41.5976L37.7451 37.0181L40.3636 39.6353C40.5973 39.8703 40.9148 40.0015 41.2472 40.0015H46.2467H48.7464C49.0789 40.0015 49.3964 39.8703 49.6301 39.6353L52.2486 37.0181L54.9958 41.5976V43.2849L50.7537 45.1022L51.7374 47.3994L54.9958 46.0033V47.3094C54.8083 47.8856 54.4721 48.6705 53.9134 49.463L51.5899 48.7993L50.9037 51.2028L51.8011 51.459C50.8475 52.0452 49.7826 52.3989 48.6315 52.5064C48.149 52.5514 47.7353 52.8713 47.5716 53.3263C47.4066 53.7825 47.5203 54.2912 47.8628 54.6336L50.3625 57.1334C50.5962 57.3684 50.9137 57.4996 51.2462 57.4996H64.9059C65.6209 57.6083 69.3992 58.3445 71.409 61.8691C73.4663 65.475 72.0602 69.2158 71.559 70.3182Z" fill="#3F2355"/>
<path d="M73.8387 16.4928C71.5877 10.2372 64.281 0.697011 53.3697 0.0570801C45.953 -0.389122 40.3074 5.39275 37.6064 8.16745C37.5539 8.2212 37.5014 8.27494 37.4514 8.32619C37.3814 8.25494 37.3102 8.17995 37.2339 8.10121C34.5742 5.33901 28.9973 -0.420368 21.6269 0.0270834C10.7156 0.667014 3.40885 10.206 1.15784 16.4628C-1.84808 24.8244 1.06286 35.5083 9.14573 45.7746L11.1118 44.2286C3.57258 34.6546 0.801633 24.8419 3.51134 17.3077C5.53612 11.6758 12.0717 3.0905 21.7731 2.52181C28.0349 2.1706 33.0331 7.34254 35.4341 9.83602C35.8928 10.311 36.264 10.6947 36.539 10.9384C36.6902 11.0734 36.874 11.1696 37.0702 11.2184L37.1989 11.2496C37.5976 11.3484 38.0226 11.2446 38.3301 10.9697C38.5963 10.7334 38.955 10.366 39.3987 9.90977C41.8397 7.40254 46.9354 2.19685 53.2234 2.55181C62.9261 3.12175 69.4604 11.7071 71.4852 17.339C74.5661 25.903 70.5591 37.328 60.7676 47.9007L62.6012 49.5992C73.0401 38.3279 77.2408 25.9518 73.8387 16.4928Z" fill="#3F2355"/>
<path d="M34.9979 21.2534H32.4982V23.7531H34.9979V21.2534Z" fill="#3F2355"/>
<path d="M42.4971 21.2534H39.9974V23.7531H42.4971V21.2534Z" fill="#3F2355"/>
<path d="M39.9974 26.2529H34.9979V28.7527H39.9974V26.2529Z" fill="#3F2355"/>
<path d="M42.4971 42.5012H39.9974V45.0009H42.4971V42.5012Z" fill="#3F2355"/>
<path d="M49.9963 42.5012H47.4966V45.0009H49.9963V42.5012Z" fill="#3F2355"/>
<path d="M46.2467 46.2507H43.747V48.7505H46.2467V46.2507Z" fill="#3F2355"/>
</svg>
