<svg width="75" height="75" viewBox="0 0 75 75" fill="none" xmlns="http://www.w3.org/2000/svg">
<path d="M19.9219 26.9531V66.7969C19.9219 68.7025 21.4646 70.3125 23.291 70.3125H48.0469V72.6563H23.291C20.1942 72.6563 17.5781 69.973 17.5781 66.7969V26.9531H19.9219ZM28.5727 9.37501L29.4207 11.071C29.518 11.2656 29.6676 11.4293 29.8527 11.5437C30.0378 11.6582 30.2511 11.7188 30.4688 11.7188H44.5312C44.7489 11.7188 44.9622 11.6582 45.1473 11.5437C45.3324 11.4293 45.482 11.2656 45.5793 11.071L46.4273 9.37501H51.5625C52.4946 9.37606 53.3882 9.74679 54.0473 10.4059C54.7063 11.065 55.0771 11.9586 55.0781 12.8906V51.0772L52.19 48.1891C51.3487 47.3478 50.2076 46.8751 49.0177 46.875C47.8278 46.875 46.6867 47.3477 45.8453 48.189C45.0039 49.0304 44.5312 50.1715 44.5312 51.3614C44.5312 52.5513 45.0039 53.6924 45.8452 54.5338L50.1372 58.8258L50.0552 58.9899C49.0498 60.9873 48.5543 63.2024 48.6129 65.4378C48.6714 67.6732 49.2821 69.8593 50.3906 71.8014V72.6563H52.7344V71.4844C52.7343 71.272 52.6766 71.0636 52.5674 70.8815C51.5867 69.2566 51.0341 67.4096 50.9613 65.5131C50.8885 63.6166 51.2978 61.7327 52.1509 60.0374L52.6106 59.1179C52.7206 58.8979 52.7585 58.6488 52.7191 58.406C52.6797 58.1632 52.5648 57.939 52.3909 57.7651L47.5022 52.8766C47.1055 52.4737 46.8841 51.9304 46.8863 51.3649C46.8884 50.7995 47.114 50.2579 47.5138 49.858C47.9136 49.4582 48.4553 49.2326 49.0207 49.2304C49.5861 49.2282 50.1295 49.4496 50.5324 49.8463L55.421 54.7349L58.9367 58.2506L60.594 56.5932L57.4219 53.4208V46.1884L62.7369 51.5039C63.2827 52.0467 63.7154 52.6923 64.01 53.4034C64.3046 54.1146 64.4552 54.8771 64.4531 55.6468V72.6563H66.7969V55.6468C66.7999 54.5691 66.5891 53.5015 66.1767 52.5058C65.7644 51.5101 65.1586 50.606 64.3945 49.846L57.4219 42.8734V12.8906C57.4201 11.3372 56.8022 9.84783 55.7038 8.74936C54.6053 7.65089 53.116 7.03301 51.5625 7.03126H24.6094V9.37501H28.5727ZM28.609 25.9172L31.875 21.5625C31.9842 21.417 32.1257 21.2988 32.2884 21.2175C32.4511 21.1361 32.6306 21.0938 32.8125 21.0938H42.1875C42.3694 21.0938 42.5489 21.1361 42.7116 21.2175C42.8743 21.2988 43.0158 21.417 43.125 21.5625L46.3916 25.9172L49.788 26.7668C50.2952 26.8932 50.7456 27.1857 51.0672 27.5978C51.3888 28.0099 51.5632 28.5178 51.5625 29.0405V32.8125C51.5625 33.1233 51.439 33.4214 51.2193 33.6412C50.9995 33.8609 50.7014 33.9844 50.3906 33.9844H47.8453C47.6028 34.6695 47.1539 35.2626 46.5604 35.682C45.9669 36.1015 45.258 36.3267 44.5312 36.3267C43.8045 36.3267 43.0956 36.1015 42.5021 35.682C41.9086 35.2626 41.4597 34.6695 41.2172 33.9844H33.7828C33.5403 34.6695 33.0914 35.2626 32.4979 35.682C31.9044 36.1015 31.1955 36.3267 30.4688 36.3267C29.742 36.3267 29.0331 36.1015 28.4396 35.682C27.8461 35.2626 27.3972 34.6695 27.1547 33.9844H24.6094C24.2986 33.9844 24.0005 33.8609 23.7807 33.6412C23.561 33.4214 23.4375 33.1233 23.4375 32.8125V29.0405C23.4369 28.5177 23.6114 28.0097 23.9332 27.5977C24.255 27.1856 24.7055 26.8931 25.2129 26.767L28.609 25.9172ZM31.6406 32.8125C31.6406 32.5807 31.5719 32.3542 31.4431 32.1615C31.3144 31.9687 31.1313 31.8185 30.9172 31.7298C30.7031 31.6411 30.4674 31.6179 30.2401 31.6632C30.0128 31.7084 29.804 31.82 29.6401 31.9839C29.4762 32.1478 29.3646 32.3566 29.3194 32.5839C29.2742 32.8112 29.2974 33.0468 29.3861 33.261C29.4748 33.4751 29.625 33.6581 29.8177 33.7869C30.0104 33.9157 30.237 33.9844 30.4688 33.9844C30.7794 33.984 31.0773 33.8605 31.297 33.6408C31.5167 33.4211 31.6403 33.1232 31.6406 32.8125ZM45.7031 32.8125C45.7031 32.5807 45.6344 32.3542 45.5056 32.1615C45.3769 31.9687 45.1938 31.8185 44.9797 31.7298C44.7656 31.6411 44.5299 31.6179 44.3026 31.6632C44.0753 31.7084 43.8665 31.82 43.7026 31.9839C43.5387 32.1478 43.4271 32.3566 43.3819 32.5839C43.3367 32.8112 43.3599 33.0468 43.4486 33.261C43.5373 33.4751 43.6875 33.6581 43.8802 33.7869C44.0729 33.9157 44.2995 33.9844 44.5312 33.9844C44.8419 33.984 45.1398 33.8605 45.3595 33.6408C45.5792 33.4211 45.7028 33.1232 45.7031 32.8125ZM29.5812 28.09L25.7812 29.0407V31.6406H27.1547C27.3972 30.9555 27.8461 30.3625 28.4396 29.943C29.0331 29.5235 29.742 29.2983 30.4688 29.2983C31.1955 29.2983 31.9044 29.5235 32.4979 29.943C33.0914 30.3625 33.5403 30.9555 33.7828 31.6406H41.2172C41.4597 30.9555 41.9086 30.3625 42.5021 29.943C43.0956 29.5235 43.8045 29.2983 44.5312 29.2983C45.258 29.2983 45.9669 29.5235 46.5604 29.943C47.1539 30.3625 47.6028 30.9555 47.8453 31.6406H49.2188V29.0405L45.4188 28.09C45.1577 28.0247 44.9271 27.8716 44.7656 27.6563L41.6016 23.4375H33.3984L30.2344 27.6563C30.0729 27.8716 29.8423 28.0247 29.5812 28.09ZM2.34375 20.6596C2.34405 19.9722 2.52348 19.2968 2.86436 18.6999L10.7102 4.9692C11.166 4.17164 11.8245 3.50873 12.619 3.04766C13.4135 2.58659 14.3158 2.34375 15.2344 2.34375C16.153 2.34375 17.0553 2.58659 17.8498 3.04766C18.6443 3.50873 19.3028 4.17164 19.7585 4.9692L27.6045 18.6999C27.9478 19.3006 28.1272 19.9809 28.1249 20.6728C28.1226 21.3646 27.9387 22.0437 27.5914 22.6421C27.2441 23.2405 26.7458 23.7371 26.1463 24.0824C25.5467 24.4277 24.867 24.6094 24.1752 24.6094H6.29355C5.24643 24.608 4.24259 24.1914 3.50216 23.451C2.76173 22.7105 2.34515 21.7067 2.34375 20.6596ZM4.6875 20.6596C4.68797 21.0854 4.85732 21.4936 5.15842 21.7947C5.45951 22.0958 5.86775 22.2652 6.29355 22.2656H24.1752C24.4564 22.2656 24.7327 22.1917 24.9765 22.0514C25.2202 21.911 25.4228 21.7091 25.564 21.4659C25.7052 21.2226 25.78 20.9466 25.781 20.6654C25.782 20.3841 25.7092 20.1075 25.5697 19.8633L17.7234 6.132C17.4727 5.69317 17.1104 5.32844 16.6733 5.07475C16.2362 4.82107 15.7398 4.68745 15.2344 4.68745C14.729 4.68745 14.2326 4.82107 13.7954 5.07475C13.3583 5.32844 12.996 5.69317 12.7453 6.132L4.89917 19.8633C4.76059 20.1058 4.68763 20.3803 4.6875 20.6596ZM16.4062 8.20314H14.0625V15.2344H16.4062V8.20314ZM16.4062 17.5781H14.0625V19.9219H16.4062V17.5781ZM23.4375 59.1797C23.438 58.7137 23.6234 58.2668 23.9529 57.9373C24.2825 57.6078 24.7293 57.4224 25.1953 57.4219H28.7109C29.177 57.4224 29.6238 57.6078 29.9533 57.9373C30.2829 58.2668 30.4682 58.7137 30.4688 59.1797V62.6953C30.4682 63.1614 30.2829 63.6082 29.9533 63.9377C29.6238 64.2673 29.177 64.4526 28.7109 64.4531H25.1953C24.7293 64.4526 24.2825 64.2673 23.9529 63.9377C23.6234 63.6082 23.438 63.1614 23.4375 62.6953V59.1797ZM25.7812 62.1094H28.125V59.7656H25.7812V62.1094ZM32.8125 59.7656H44.5312V57.4219H32.8125V59.7656ZM32.8125 64.4531H45.7031V62.1094H32.8125V64.4531ZM23.4375 49.8047C23.438 49.3387 23.6234 48.8918 23.9529 48.5623C24.2825 48.2328 24.7293 48.0474 25.1953 48.0469H28.7109C29.177 48.0474 29.6238 48.2328 29.9533 48.5623C30.2829 48.8918 30.4682 49.3387 30.4688 49.8047V53.3203C30.4682 53.7864 30.2829 54.2332 29.9533 54.5627C29.6238 54.8923 29.177 55.0776 28.7109 55.0781H25.1953C24.7293 55.0776 24.2825 54.8923 23.9529 54.5627C23.6234 54.2332 23.438 53.7864 23.4375 53.3203V49.8047ZM25.7812 52.7344H28.125V50.3906H25.7812V52.7344ZM41.0156 48.0469H32.8125V50.3906H41.0156V48.0469ZM32.8125 55.0781H41.0156V52.7344H32.8125V55.0781ZM23.4375 40.4297C23.438 39.9637 23.6234 39.5168 23.9529 39.1873C24.2825 38.8578 24.7293 38.6724 25.1953 38.6719H28.7109C29.177 38.6724 29.6238 38.8578 29.9533 39.1873C30.2829 39.5168 30.4682 39.9637 30.4688 40.4297V43.9453C30.4682 44.4114 30.2829 44.8582 29.9533 45.1877C29.6238 45.5173 29.177 45.7026 28.7109 45.7031H25.1953C24.7293 45.7026 24.2825 45.5173 23.9529 45.1877C23.6234 44.8582 23.438 44.4114 23.4375 43.9453V40.4297ZM25.7812 43.3594H28.125V41.0156H25.7812V43.3594ZM51.5625 38.6719H32.8125V41.0156H51.5625V38.6719ZM51.5625 43.3594H32.8125V45.7031H51.5625V43.3594ZM71.1412 12.5474L69.4838 10.8901L67.1401 13.2339L68.7974 14.8912L71.1412 12.5474ZM67.0396 16.649L65.3823 14.9917L60.1088 20.2651L61.7662 21.9224L67.0396 16.649ZM70.166 26.9531V29.2969H72.6562V26.9531H70.166ZM60.9375 26.9531V29.2969H67.5293V26.9531H60.9375ZM71.1412 43.7026L68.7974 41.3588L67.1401 43.0162L69.4838 45.3599L71.1412 43.7026ZM66.7954 39.357L61.7662 34.3276L60.1088 35.9849L65.1381 41.0142L66.7954 39.357ZM35.1562 15.2344H29.2969V17.5781H35.1562V15.2344ZM43.3594 15.2344H37.5V17.5781H43.3594V15.2344ZM51.5625 15.2344H45.7031V17.5781H51.5625V15.2344Z" fill="#3F2355"/>
</svg>
