<svg width="75" height="75" viewBox="0 0 75 75" fill="none" xmlns="http://www.w3.org/2000/svg">
<g clip-path="url(#clip0_5_172)">
<path d="M23.75 60C29.3895 60.0024 34.8457 57.9971 39.1414 54.3432C43.4371 50.6893 46.2918 45.6255 47.1942 40.0587C48.0965 34.4918 46.9877 28.7856 44.0662 23.9618C41.1448 19.138 36.6015 15.5118 31.25 13.7325V12.5C31.2485 11.3461 30.8485 10.2281 30.1175 9.33521C29.3866 8.44231 28.3696 7.82934 27.2387 7.6C27.4088 7.17009 27.4974 6.7123 27.5 6.25V3.75C27.5 2.75544 27.1049 1.80161 26.4016 1.09835C25.6984 0.395088 24.7446 0 23.75 0C22.7554 0 21.8016 0.395088 21.0983 1.09835C20.3951 1.80161 20 2.75544 20 3.75V6.25C20.0026 6.7123 20.0912 7.17009 20.2612 7.6C19.1303 7.82934 18.1134 8.44231 17.3824 9.33521C16.6515 10.2281 16.2515 11.3461 16.25 12.5V13.7325C10.8985 15.5118 6.35522 19.138 3.43374 23.9618C0.512263 28.7856 -0.59657 34.4918 0.305819 40.0587C1.20821 45.6255 4.06288 50.6893 8.35859 54.3432C12.6543 57.9971 18.1105 60.0024 23.75 60ZM22.5 3.75C22.5 3.41848 22.6317 3.10054 22.8661 2.86612C23.1005 2.6317 23.4185 2.5 23.75 2.5C24.0815 2.5 24.3995 2.6317 24.6339 2.86612C24.8683 3.10054 25 3.41848 25 3.75V6.25C25 6.58152 24.8683 6.89946 24.6339 7.13388C24.3995 7.3683 24.0815 7.5 23.75 7.5C23.4185 7.5 23.1005 7.3683 22.8661 7.13388C22.6317 6.89946 22.5 6.58152 22.5 6.25V3.75ZM18.75 12.5C18.75 11.837 19.0134 11.2011 19.4822 10.7322C19.9511 10.2634 20.5869 10 21.25 10H26.25C26.913 10 27.5489 10.2634 28.0178 10.7322C28.4866 11.2011 28.75 11.837 28.75 12.5V13.04C25.4555 12.32 22.0444 12.32 18.75 13.04V12.5ZM23.75 15C27.9528 15 32.0613 16.2463 35.5559 18.5813C39.0504 20.9162 41.7741 24.235 43.3824 28.118C44.9908 32.0009 45.4116 36.2736 44.5917 40.3957C43.7717 44.5178 41.7479 48.3041 38.776 51.276C35.8041 54.2479 32.0178 56.2717 27.8957 57.0917C23.7736 57.9116 19.5009 57.4908 15.618 55.8824C11.735 54.2741 8.41624 51.5504 6.08126 48.0559C3.74628 44.5613 2.49999 40.4529 2.49999 36.25C2.50627 30.6161 4.74713 25.2147 8.73091 21.2309C12.7147 17.2471 18.1161 15.0063 23.75 15Z" fill="#3F2355"/>
<path d="M67.5 49.0175V46.25C67.4965 45.428 67.223 44.63 66.7216 43.9786C66.2202 43.3273 65.5187 42.8587 64.725 42.645C64.9053 42.2019 64.9986 41.7283 65 41.25V40C65 39.0054 64.6049 38.0516 63.9017 37.3483C63.1984 36.6451 62.2446 36.25 61.25 36.25C60.2555 36.25 59.3016 36.6451 58.5984 37.3483C57.8951 38.0516 57.5 39.0054 57.5 40V41.25C57.5014 41.7283 57.5948 42.2019 57.775 42.645C56.9813 42.8587 56.2798 43.3273 55.7784 43.9786C55.277 44.63 55.0035 45.428 55 46.25V49.0175C52.2497 50.421 50.0518 52.7095 48.7604 55.5142C47.4689 58.319 47.1592 61.4768 47.8809 64.479C48.6027 67.4812 50.314 70.1531 52.7392 72.0644C55.1643 73.9756 58.1622 75.015 61.25 75.015C64.3378 75.015 67.3357 73.9756 69.7609 72.0644C72.1861 70.1531 73.8974 67.4812 74.6191 64.479C75.3409 61.4768 75.0311 58.319 73.7397 55.5142C72.4483 52.7095 70.2504 50.421 67.5 49.0175ZM60 40C60 39.6685 60.1317 39.3505 60.3661 39.1161C60.6006 38.8817 60.9185 38.75 61.25 38.75C61.5815 38.75 61.8995 38.8817 62.1339 39.1161C62.3683 39.3505 62.5 39.6685 62.5 40V41.25C62.5 41.5815 62.3683 41.8995 62.1339 42.1339C61.8995 42.3683 61.5815 42.5 61.25 42.5C60.9185 42.5 60.6006 42.3683 60.3661 42.1339C60.1317 41.8995 60 41.5815 60 41.25V40ZM57.5 46.25C57.5 45.9185 57.6317 45.6005 57.8661 45.3661C58.1006 45.1317 58.4185 45 58.75 45H63.75C64.0815 45 64.3995 45.1317 64.6339 45.3661C64.8683 45.6005 65 45.9185 65 46.25V48.0325C62.5504 47.3225 59.9496 47.3225 57.5 48.0325V46.25ZM61.25 72.5C59.025 72.5 56.8499 71.8402 54.9998 70.604C53.1498 69.3679 51.7079 67.6109 50.8564 65.5552C50.0049 63.4995 49.7821 61.2375 50.2162 59.0552C50.6503 56.873 51.7217 54.8684 53.2951 53.2951C54.8684 51.7217 56.873 50.6503 59.0553 50.2162C61.2375 49.7821 63.4995 50.0049 65.5552 50.8564C67.6109 51.7078 69.3679 53.1498 70.6041 54.9998C71.8402 56.8499 72.5 59.025 72.5 61.25C72.4967 64.2327 71.3104 67.0922 69.2013 69.2013C67.0923 71.3104 64.2327 72.4967 61.25 72.5Z" fill="#3F2355"/>
<path d="M25 25C25 24.6685 24.8683 24.3505 24.6339 24.1161C24.3994 23.8817 24.0815 23.75 23.75 23.75C23.4185 23.75 23.1005 23.8817 22.8661 24.1161C22.6317 24.3505 22.5 24.6685 22.5 25V25.125C21.0871 25.4119 19.8169 26.1784 18.9045 27.2947C17.9921 28.4109 17.4937 29.8083 17.4937 31.25C17.4937 32.6917 17.9921 34.0891 18.9045 35.2053C19.8169 36.3216 21.0871 37.0881 22.5 37.375V44.7713C21.7711 44.5136 21.1398 44.037 20.6922 43.4066C20.2447 42.7763 20.0029 42.0231 20 41.25C20 40.9185 19.8683 40.6005 19.6339 40.3661C19.3994 40.1317 19.0815 40 18.75 40C18.4185 40 18.1005 40.1317 17.8661 40.3661C17.6317 40.6005 17.5 40.9185 17.5 41.25C17.5018 42.6903 18.0001 44.0859 18.9109 45.2016C19.8217 46.3173 21.0892 47.0849 22.5 47.375V47.5C22.5 47.8315 22.6317 48.1495 22.8661 48.3839C23.1005 48.6183 23.4185 48.75 23.75 48.75C24.0815 48.75 24.3994 48.6183 24.6339 48.3839C24.8683 48.1495 25 47.8315 25 47.5V47.375C26.4128 47.0881 27.6831 46.3216 28.5955 45.2053C29.5078 44.0891 30.0062 42.6917 30.0062 41.25C30.0062 39.8083 29.5078 38.4109 28.5955 37.2947C27.6831 36.1784 26.4128 35.4119 25 35.125V27.73C25.7286 27.9876 26.3599 28.464 26.8074 29.0941C27.2549 29.7242 27.4968 30.4772 27.5 31.25C27.5 31.5815 27.6317 31.8995 27.8661 32.1339C28.1005 32.3683 28.4185 32.5 28.75 32.5C29.0815 32.5 29.3994 32.3683 29.6339 32.1339C29.8683 31.8995 30 31.5815 30 31.25C29.9982 29.8097 29.4999 28.4142 28.5891 27.2984C27.6783 26.1827 26.4107 25.4151 25 25.125V25ZM20 31.25C20.0032 30.4772 20.2451 29.7242 20.6926 29.0941C21.1401 28.464 21.7713 27.9876 22.5 27.73V34.77C21.7713 34.5124 21.1401 34.036 20.6926 33.4059C20.2451 32.7758 20.0032 32.0228 20 31.25ZM27.5 41.25C27.4968 42.0228 27.2549 42.7758 26.8074 43.4059C26.3599 44.036 25.7286 44.5124 25 44.77V37.73C25.7286 37.9876 26.3599 38.464 26.8074 39.0941C27.2549 39.7242 27.4968 40.4772 27.5 41.25Z" fill="#3F2355"/>
<path d="M27.5525 53.3751C27.6295 53.6329 27.7876 53.8591 28.0033 54.0199C28.2191 54.1806 28.481 54.2675 28.75 54.2676C28.8711 54.2672 28.9915 54.2495 29.1075 54.2151C32.0934 53.3285 34.8107 51.7106 37.0131 49.5082C39.2155 47.3058 40.8334 44.5884 41.72 41.6026C41.771 41.4442 41.7897 41.2773 41.7753 41.1115C41.7609 40.9458 41.7135 40.7846 41.636 40.6374C41.5585 40.4903 41.4523 40.36 41.3238 40.2544C41.1953 40.1487 41.047 40.0698 40.8876 40.0222C40.7282 39.9746 40.5609 39.9593 40.3955 39.9772C40.2301 39.9951 40.07 40.0459 39.9244 40.1265C39.7789 40.2071 39.6509 40.3159 39.548 40.4466C39.4451 40.5773 39.3693 40.7272 39.325 40.8876C38.5563 43.4756 37.1538 45.8309 35.2448 47.7399C33.3358 49.6489 30.9805 51.0513 28.3925 51.8201C28.075 51.915 27.8081 52.1321 27.6506 52.4237C27.4931 52.7153 27.4578 53.0575 27.5525 53.3751Z" fill="#3F2355"/>
<path d="M9.67999 28.125C11.1115 25.66 13.1636 23.6128 15.6321 22.1873C18.1006 20.7618 20.8995 20.0077 23.75 20C24.0815 20 24.3995 19.8683 24.6339 19.6339C24.8683 19.3995 25 19.0815 25 18.75C25 18.4185 24.8683 18.1005 24.6339 17.8661C24.3995 17.6317 24.0815 17.5 23.75 17.5C20.4612 17.5086 17.232 18.3787 14.384 20.0236C11.536 21.6684 9.16857 24.0306 7.51749 26.875C7.42705 27.0173 7.36632 27.1764 7.33896 27.3427C7.3116 27.5091 7.31817 27.6792 7.35828 27.843C7.39839 28.0067 7.4712 28.1607 7.57235 28.2956C7.67349 28.4304 7.80088 28.5434 7.94683 28.6278C8.09279 28.7122 8.2543 28.7662 8.42166 28.7865C8.58901 28.8068 8.75875 28.7931 8.92066 28.7461C9.08257 28.6991 9.23331 28.6199 9.3638 28.5132C9.4943 28.4064 9.60185 28.2744 9.67999 28.125Z" fill="#3F2355"/>
<path d="M6.92253 31.2787C6.76215 31.2436 6.59641 31.2404 6.43479 31.2693C6.27317 31.2982 6.11883 31.3587 5.98058 31.4472C5.84233 31.5358 5.72288 31.6507 5.62906 31.7855C5.53524 31.9202 5.46888 32.0721 5.43378 32.2325C5.33628 32.6733 5.25294 33.1204 5.18378 33.5737C5.16067 33.7366 5.16995 33.9025 5.21107 34.0617C5.25219 34.221 5.32434 34.3706 5.4234 34.502C5.52246 34.6333 5.64647 34.7438 5.78832 34.8271C5.93017 34.9104 6.08707 34.9649 6.25003 34.9875C6.30881 34.996 6.36813 35.0001 6.42753 35C6.72829 34.9997 7.01887 34.891 7.24594 34.6937C7.47302 34.4965 7.62137 34.224 7.66378 33.9262C7.71878 33.5354 7.78836 33.1492 7.87253 32.7675C7.94363 32.4441 7.88353 32.1058 7.70543 31.8266C7.52732 31.5475 7.24576 31.3505 6.92253 31.2787Z" fill="#3F2355"/>
<path d="M61.25 60C61.0306 59.9998 60.8152 59.9418 60.6253 59.832C60.4354 59.7221 60.2778 59.5643 60.1682 59.3742C60.0587 59.1841 60.0011 58.9686 60.0012 58.7492C60.0013 58.5299 60.0592 58.3144 60.169 58.1245C60.2788 57.9345 60.4366 57.7769 60.6266 57.6672C60.8166 57.5576 61.0321 57.4999 61.2515 57.5C61.4709 57.5001 61.6864 57.5578 61.8763 57.6675C62.0663 57.7773 62.2241 57.935 62.3337 58.125C62.5047 58.4014 62.7766 58.6003 63.0918 58.6796C63.407 58.7589 63.7406 58.7123 64.022 58.5497C64.3034 58.3871 64.5105 58.1214 64.5992 57.8087C64.688 57.4961 64.6515 57.1612 64.4975 56.875C64.0449 56.114 63.3371 55.5382 62.5 55.25V55C62.5 54.6685 62.3683 54.3505 62.1339 54.1161C61.8995 53.8817 61.5815 53.75 61.25 53.75C60.9185 53.75 60.6005 53.8817 60.3661 54.1161C60.1317 54.3505 60 54.6685 60 55V55.23C59.1666 55.5235 58.4641 56.1025 58.0167 56.8644C57.5693 57.6263 57.406 58.522 57.5558 59.3927C57.7055 60.2635 58.1585 61.0531 58.8347 61.6219C59.5108 62.1906 60.3665 62.5017 61.25 62.5C61.4694 62.5002 61.6848 62.5581 61.8747 62.668C62.0646 62.7778 62.2222 62.9357 62.3318 63.1258C62.4413 63.3158 62.4989 63.5314 62.4988 63.7508C62.4986 63.9701 62.4408 64.1856 62.331 64.3755C62.2212 64.5654 62.0634 64.7231 61.8734 64.8328C61.6834 64.9424 61.4678 65 61.2485 65C61.0291 64.9999 60.8136 64.9422 60.6236 64.8324C60.4337 64.7227 60.2759 64.565 60.1662 64.375C59.9953 64.0986 59.7234 63.8997 59.4082 63.8204C59.093 63.7411 58.7594 63.7877 58.4779 63.9503C58.1965 64.1128 57.9895 64.3786 57.9007 64.6913C57.812 65.0039 57.8485 65.3388 58.0025 65.625C58.4557 66.3864 59.1644 66.9623 60.0025 67.25V67.5C60.0025 67.8315 60.1342 68.1495 60.3686 68.3839C60.603 68.6183 60.921 68.75 61.2525 68.75C61.584 68.75 61.902 68.6183 62.1364 68.3839C62.3708 68.1495 62.5025 67.8315 62.5025 67.5V67.27C63.336 66.9764 64.0388 66.3972 64.4861 65.635C64.9335 64.8729 65.0966 63.977 64.9465 63.106C64.7965 62.2351 64.343 61.4454 63.6664 60.8769C62.9898 60.3084 62.1337 59.9977 61.25 60Z" fill="#3F2355"/>
<path d="M55.7325 27.5H53.75C53.4185 27.5 53.1006 27.6317 52.8661 27.8661C52.6317 28.1006 52.5 28.4185 52.5 28.75C52.5 29.0815 52.6317 29.3995 52.8661 29.6339C53.1006 29.8683 53.4185 30 53.75 30H58.75C59.0815 30 59.3995 29.8683 59.6339 29.6339C59.8683 29.3995 60 29.0815 60 28.75V23.75C60 23.4185 59.8683 23.1006 59.6339 22.8661C59.3995 22.6317 59.0815 22.5 58.75 22.5C58.4185 22.5 58.1006 22.6317 57.8661 22.8661C57.6317 23.1006 57.5 23.4185 57.5 23.75V25.7325L35.8838 4.11627C35.648 3.88857 35.3323 3.76258 35.0045 3.76543C34.6768 3.76828 34.3633 3.89974 34.1315 4.1315C33.8997 4.36326 33.7683 4.67677 33.7654 5.00452C33.7626 5.33226 33.8886 5.64802 34.1163 5.88377L55.7325 27.5Z" fill="#3F2355"/>
<path d="M6.26372 63.5675C6.21542 63.8954 6.29928 64.229 6.49688 64.495C6.69448 64.7611 6.98964 64.9378 7.31747 64.9863L38.095 69.555L36.5 70.75C36.3686 70.8485 36.258 70.9719 36.1744 71.1132C36.0907 71.2544 36.0357 71.4107 36.0125 71.5732C35.9893 71.7358 35.9983 71.9012 36.0391 72.0603C36.0798 72.2193 36.1515 72.3687 36.25 72.5C36.3485 72.6313 36.4719 72.742 36.6131 72.8256C36.7543 72.9093 36.9107 72.9642 37.0732 72.9875C37.2357 73.0107 37.4012 73.0017 37.5602 72.9609C37.7192 72.9202 37.8686 72.8485 38 72.75L42 69.75C42.2652 69.5511 42.4405 69.255 42.4874 68.9268C42.5343 68.5986 42.4489 68.2652 42.25 68L39.25 64C39.0511 63.7348 38.7549 63.5595 38.4267 63.5126C38.0986 63.4657 37.7652 63.5511 37.5 63.75C37.2348 63.9489 37.0594 64.2451 37.0125 64.5732C36.9656 64.9014 37.0511 65.2348 37.25 65.5L38.4337 67.0763L7.68372 62.5125C7.35579 62.4659 7.02272 62.5506 6.75684 62.7481C6.49097 62.9456 6.31377 63.2401 6.26372 63.5675Z" fill="#3F2355"/>
</g>
<defs>
<clipPath id="clip0_5_172">
<rect width="75" height="75" fill="white"/>
</clipPath>
</defs>
</svg>
