<svg width="75" height="75" viewBox="0 0 75 75" fill="none" xmlns="http://www.w3.org/2000/svg">
<path d="M43.3594 72.6562H30.4688V45.7031C30.4688 45.3923 30.5922 45.0943 30.812 44.8745C31.0318 44.6547 31.3298 44.5312 31.6406 44.5312H38.6719C38.9827 44.5312 39.2807 44.4078 39.5005 44.188C39.7203 43.9682 39.8438 43.6702 39.8438 43.3594C39.8438 43.0486 39.7203 42.7505 39.5005 42.5307C39.2807 42.311 38.9827 42.1875 38.6719 42.1875H31.6406C30.7082 42.1875 29.814 42.5579 29.1547 43.2172C28.4954 43.8765 28.125 44.7707 28.125 45.7031V72.6562H20.4422C20.864 71.9469 21.0889 71.1378 21.0938 70.3125C21.0938 69.0693 20.5999 67.877 19.7208 66.9979C18.8417 66.1189 17.6495 65.625 16.4062 65.625C16.0397 65.625 15.6744 65.6699 15.3187 65.7586C14.7803 64.9933 14.0656 64.3688 13.2351 63.9376C12.4046 63.5065 11.4826 63.2815 10.5469 63.2815C9.61114 63.2815 8.68912 63.5065 7.85861 63.9376C7.02811 64.3688 6.31347 64.9933 5.775 65.7586C5.41929 65.6699 5.05409 65.6251 4.6875 65.625C3.4443 65.625 2.25201 66.1189 1.37294 66.9979C0.49386 67.877 0 69.0693 0 70.3125C0 71.5557 0.49386 72.748 1.37294 73.6271C2.25201 74.5061 3.4443 75 4.6875 75H43.3594C43.6702 75 43.9682 74.8765 44.188 74.6568C44.4078 74.437 44.5312 74.1389 44.5312 73.8281C44.5312 73.5173 44.4078 73.2193 44.188 72.9995C43.9682 72.7797 43.6702 72.6562 43.3594 72.6562ZM16.4062 72.6562H4.6875C4.33031 72.661 3.97675 72.584 3.65386 72.4312C3.33096 72.2784 3.04727 72.0538 2.82446 71.7746C2.60164 71.4954 2.4456 71.1689 2.36825 70.8202C2.29091 70.4714 2.29431 70.1096 2.37819 69.7624C2.46207 69.4151 2.62422 69.0916 2.85224 68.8167C3.08026 68.5417 3.36813 68.3225 3.69384 68.1757C4.01954 68.029 4.37448 67.9587 4.73152 67.9702C5.08856 67.9816 5.43827 68.0745 5.75391 68.2418C5.89491 68.3145 6.04921 68.3578 6.20744 68.369C6.36567 68.3803 6.52455 68.3594 6.67444 68.3074C6.82433 68.2555 6.96212 68.1737 7.07945 68.0669C7.19678 67.9601 7.29122 67.8307 7.35703 67.6863C7.63397 67.0723 8.08226 66.5512 8.6481 66.1856C9.21393 65.8201 9.87324 65.6257 10.5469 65.6257C11.2205 65.6257 11.8798 65.8201 12.4457 66.1856C13.0115 66.5512 13.4598 67.0723 13.7367 67.6863C13.8025 67.8307 13.897 67.9601 14.0143 68.0669C14.1316 68.1737 14.2694 68.2555 14.4193 68.3074C14.5692 68.3594 14.7281 68.3803 14.8863 68.369C15.0445 68.3578 15.1988 68.3145 15.3398 68.2418C15.6546 68.079 16.0022 67.9899 16.3565 67.9812C16.7107 67.9725 17.0623 68.0444 17.3847 68.1916C17.7071 68.3387 17.9918 68.5572 18.2173 68.8306C18.4428 69.1039 18.6032 69.4249 18.6864 69.7694C18.7696 70.1138 18.7734 70.4727 18.6976 70.8189C18.6217 71.165 18.4682 71.4894 18.2485 71.7675C18.0289 72.0455 17.7489 72.27 17.4298 72.424C17.1106 72.578 16.7606 72.6574 16.4062 72.6562Z" fill="#3F2355"/>
<path d="M24.6094 58.5938C24.9202 58.5938 25.2182 58.4703 25.438 58.2505C25.6578 58.0307 25.7812 57.7327 25.7812 57.4219V43.3594C25.7812 43.0486 25.6578 42.7505 25.438 42.5307C25.2182 42.311 24.9202 42.1875 24.6094 42.1875H10.5469C10.2361 42.1875 9.938 42.311 9.71823 42.5307C9.49847 42.7505 9.375 43.0486 9.375 43.3594V57.4219C9.375 57.7327 9.49847 58.0307 9.71823 58.2505C9.938 58.4703 10.2361 58.5938 10.5469 58.5938H24.6094ZM18.75 44.5312H23.4375V49.2188H18.75V44.5312ZM18.75 51.5625H23.4375V56.25H18.75V51.5625ZM11.7188 44.5312H16.4062V49.2188H11.7188V44.5312ZM11.7188 51.5625H16.4062V56.25H11.7188V51.5625Z" fill="#3F2355"/>
<path d="M42.1875 60.9375C42.8347 60.9375 43.3594 60.4128 43.3594 59.7656C43.3594 59.1184 42.8347 58.5938 42.1875 58.5938C41.5403 58.5938 41.0156 59.1184 41.0156 59.7656C41.0156 60.4128 41.5403 60.9375 42.1875 60.9375Z" fill="#3F2355"/>
<path d="M73.1766 53.7586L73.9863 52.95C74.6352 52.301 74.9998 51.4209 74.9998 50.5031C74.9998 49.5854 74.6352 48.7052 73.9863 48.0563L73.1766 47.2465C72.9568 47.0268 72.6588 46.9034 72.3481 46.9034C72.0373 46.9034 71.7393 47.0268 71.5195 47.2465L69.9012 48.8672C69.7974 48.971 69.6741 49.0533 69.5385 49.1095C69.4029 49.1657 69.2575 49.1946 69.1107 49.1946C68.9639 49.1946 68.8186 49.1657 68.683 49.1095C68.5473 49.0533 68.4241 48.971 68.3203 48.8672C68.2165 48.7634 68.1342 48.6402 68.078 48.5045C68.0218 48.3689 67.9929 48.2236 67.9929 48.0768C67.9929 47.93 68.0218 47.7846 68.078 47.649C68.1342 47.5134 68.2165 47.3901 68.3203 47.2863L69.9387 45.6668C70.1584 45.4471 70.2818 45.149 70.2818 44.8383C70.2818 44.5276 70.1584 44.2295 69.9387 44.0098L69.1289 43.2C68.4793 42.5522 67.5994 42.1885 66.682 42.1885C65.7647 42.1885 64.8847 42.5522 64.2352 43.2L63.4266 44.0086C62.641 44.7972 62.1017 45.7972 61.874 46.8867C61.6464 47.9763 61.7404 49.1086 62.1445 50.1457L58.6828 53.6086L57.4617 52.3875C57.8754 51.8203 58.2902 51.2567 58.6582 50.6485C59.0785 49.9582 59.2551 49.1469 59.1597 48.3445C59.0643 47.542 58.7024 46.7947 58.132 46.2223L55.5809 43.6711C55.0084 43.1007 54.2611 42.7389 53.4587 42.6435C52.6562 42.5481 51.8449 42.7247 51.1547 43.1449C50.5465 43.5129 49.9828 43.9277 49.4156 44.3414L48.3117 43.2375C47.6278 42.5854 46.719 42.2215 45.774 42.2215C44.829 42.2215 43.9203 42.5854 43.2363 43.2375C42.5643 43.9111 42.1869 44.8237 42.1869 45.7752C42.1869 46.7267 42.5643 47.6393 43.2363 48.3129L44.3402 49.4168C43.9266 49.9828 43.5117 50.5477 43.1438 51.1559C42.7235 51.8461 42.5469 52.6574 42.6423 53.4598C42.7377 54.2623 43.0995 55.0096 43.6699 55.582L46.2211 58.1332C46.5546 58.4675 46.9508 58.7328 47.3869 58.9137C47.8231 59.0947 48.2907 59.1879 48.7629 59.1879C49.4272 59.1872 50.0787 59.0053 50.6473 58.6617C51.2555 58.2938 51.8191 57.8789 52.3863 57.4652L53.6074 58.6852L50.1445 62.1481C49.1077 61.7433 47.9755 61.649 46.8859 61.8766C45.7964 62.1043 44.7966 62.644 44.0086 63.4301L43.1988 64.2387C42.5499 64.8877 42.1854 65.7678 42.1854 66.6856C42.1854 67.6033 42.5499 68.4835 43.1988 69.1324L44.0086 69.9422C44.2284 70.1619 44.5264 70.2853 44.8371 70.2853C45.1479 70.2853 45.4459 70.1619 45.6656 69.9422L47.2863 68.3203C47.3901 68.2165 47.5134 68.1342 47.649 68.078C47.7846 68.0218 47.93 67.9929 48.0768 67.9929C48.2236 67.9929 48.3689 68.0218 48.5045 68.078C48.6402 68.1342 48.7634 68.2165 48.8672 68.3203C48.971 68.4241 49.0533 68.5474 49.1095 68.683C49.1657 68.8186 49.1946 68.964 49.1946 69.1108C49.1946 69.2576 49.1657 69.4029 49.1095 69.5385C49.0533 69.6742 48.971 69.7974 48.8672 69.9012L47.2488 71.5207C47.0291 71.7405 46.9057 72.0385 46.9057 72.3492C46.9057 72.66 47.0291 72.958 47.2488 73.1777L48.0586 73.9875C48.708 74.6356 49.588 74.9995 50.5055 74.9995C51.4229 74.9995 52.3029 74.6356 52.9523 73.9875L53.7609 73.1789C54.5465 72.3903 55.0859 71.3904 55.3135 70.3008C55.5411 69.2112 55.4471 68.079 55.043 67.0418L58.5059 63.5789L68.8758 73.95C69.5545 74.5951 70.4584 74.9493 71.3946 74.9371C72.3309 74.9249 73.2253 74.5472 73.8869 73.8846C74.5485 73.2221 74.925 72.3272 74.9359 71.3909C74.9468 70.4547 74.5913 69.5512 73.9453 68.8735L63.5742 58.5024L67.0371 55.0406C68.0743 55.4468 69.2074 55.5418 70.2978 55.3141C71.3882 55.0864 72.3886 54.5459 73.1766 53.7586ZM44.8969 44.8957C45.1338 44.6699 45.4485 44.5439 45.7758 44.5439C46.1031 44.5439 46.4178 44.6699 46.6547 44.8957L47.5922 45.8332C46.9752 46.3872 46.3884 46.974 45.8344 47.591L44.8969 46.6535C44.6644 46.4201 44.534 46.1041 44.534 45.7746C44.534 45.4452 44.6644 45.1292 44.8969 44.8957ZM49.4379 56.6531C49.1961 56.8024 48.9112 56.8663 48.6288 56.8344C48.3464 56.8025 48.0829 56.6768 47.8805 56.4774L45.3293 53.9262C45.1299 53.7237 45.0041 53.4602 44.9723 53.1778C44.9404 52.8955 45.0042 52.6106 45.1535 52.3688C46.929 49.4076 49.4067 46.9294 52.3676 45.1535C52.5709 45.0305 52.8038 44.9653 53.0414 44.9649C53.2056 44.9644 53.3683 44.9964 53.5201 45.0589C53.6719 45.1215 53.8099 45.2133 53.9262 45.3293L56.4773 47.8805C56.6769 48.0831 56.8026 48.3468 56.8345 48.6294C56.8664 48.912 56.8025 49.1971 56.6531 49.4391C54.8769 52.3997 52.3988 54.8774 49.4379 56.6531ZM52.7965 65.9766C52.6127 66.16 52.4951 66.3992 52.462 66.6567C52.4289 66.9142 52.4823 67.1753 52.6137 67.3992C52.9975 68.0468 53.1554 68.8034 53.0627 69.5504C52.97 70.2974 52.632 70.9925 52.1016 71.5266L51.293 72.3352C51.0865 72.541 50.8078 72.6581 50.5163 72.6616C50.2248 72.6651 49.9434 72.5547 49.732 72.3539L50.5219 71.5652C50.8527 71.2461 51.1167 70.8643 51.2984 70.4421C51.48 70.0198 51.5757 69.5656 51.5799 69.1059C51.5841 68.6463 51.4967 68.1904 51.3227 67.7649C51.1488 67.3394 50.8918 66.9529 50.5668 66.6278C50.2418 66.3027 49.8553 66.0456 49.4298 65.8716C49.0044 65.6975 48.5485 65.61 48.0889 65.6141C47.6292 65.6181 47.175 65.7137 46.7527 65.8953C46.3304 66.0768 45.9485 66.3407 45.6293 66.6715L44.8395 67.4602C44.6384 67.2491 44.5279 66.9679 44.5314 66.6765C44.5349 66.385 44.6522 66.1065 44.8582 65.9004L45.668 65.0918C46.2019 64.5615 46.8967 64.2234 47.6434 64.1305C48.3901 64.0376 49.1466 64.1952 49.7941 64.5785C50.0179 64.7101 50.279 64.7636 50.5365 64.7308C50.794 64.6979 51.0333 64.5805 51.2168 64.3969L55.2668 60.3469L56.8465 61.9266L52.7965 65.9766ZM72.2906 70.5363C72.5236 70.7695 72.6545 71.0856 72.6545 71.4153C72.6545 71.7449 72.5236 72.061 72.2906 72.2942C72.0537 72.52 71.739 72.6459 71.4117 72.6459C71.0844 72.6459 70.7697 72.52 70.5328 72.2942L54.2133 55.9734C54.8301 55.4192 55.4168 54.8324 55.9711 54.2156L72.2906 70.5363ZM65.9766 52.7965L61.9266 56.8453L60.3481 55.2668L64.3969 51.2168C64.5806 51.0334 64.6983 50.7942 64.7314 50.5367C64.7645 50.2792 64.7111 50.018 64.5797 49.7942C64.1959 49.1466 64.038 48.39 64.1307 47.643C64.2234 46.896 64.5614 46.2009 65.0918 45.6668L65.9004 44.8582C66.107 44.6527 66.3856 44.5357 66.6771 44.5322C66.9685 44.5287 67.2498 44.6389 67.4613 44.8395L66.6715 45.6281C66.3498 45.9492 66.0945 46.3306 65.9204 46.7505C65.7462 47.1704 65.6566 47.6205 65.6566 48.075C65.6566 48.5296 65.7462 48.9797 65.9204 49.3995C66.0945 49.8194 66.3498 50.2008 66.6715 50.5219C67.3304 51.1513 68.2065 51.5026 69.1178 51.5026C70.029 51.5026 70.9052 51.1513 71.5641 50.5219L72.3539 49.7332C72.5549 49.9442 72.6655 50.2255 72.662 50.5169C72.6585 50.8083 72.5412 51.0868 72.3352 51.293L71.5254 52.1016C70.9915 52.6319 70.2967 52.97 69.55 53.0629C68.8032 53.1558 68.0468 52.9982 67.3992 52.6149C67.1755 52.4833 66.9143 52.4298 66.6569 52.4626C66.3994 52.4955 66.1601 52.6129 65.9766 52.7965Z" fill="#3F2355"/>
<path d="M71.4844 23.4375H69.5285L38.2031 0.234375C38.0003 0.0822397 37.7536 0 37.5 0C37.2464 0 36.9997 0.0822397 36.7969 0.234375L5.47148 23.4375H3.51562C2.58322 23.4375 1.68901 23.8079 1.0297 24.4672C0.370395 25.1265 0 26.0207 0 26.9531L0 29.2969C0 30.2293 0.370395 31.1235 1.0297 31.7828C1.68901 32.4421 2.58322 32.8125 3.51562 32.8125H4.6875V62.1094C4.6875 62.4202 4.81097 62.7182 5.03073 62.938C5.2505 63.1578 5.54857 63.2812 5.85938 63.2812C6.17018 63.2812 6.46825 63.1578 6.68802 62.938C6.90778 62.7182 7.03125 62.4202 7.03125 62.1094V32.8125H55.0781C55.3889 32.8125 55.687 32.689 55.9068 32.4693C56.1265 32.2495 56.25 31.9514 56.25 31.6406C56.25 31.3298 56.1265 31.0318 55.9068 30.812C55.687 30.5922 55.3889 30.4688 55.0781 30.4688H3.51562C3.20482 30.4688 2.90675 30.3453 2.68698 30.1255C2.46722 29.9057 2.34375 29.6077 2.34375 29.2969V26.9531C2.34375 26.6423 2.46722 26.3443 2.68698 26.1245C2.90675 25.9047 3.20482 25.7812 3.51562 25.7812H71.4844C71.7952 25.7812 72.0932 25.9047 72.313 26.1245C72.5328 26.3443 72.6562 26.6423 72.6562 26.9531V29.2969C72.6562 29.6077 72.5328 29.9057 72.313 30.1255C72.0932 30.3453 71.7952 30.4688 71.4844 30.4688H59.7656C59.4548 30.4688 59.1568 30.5922 58.937 30.812C58.7172 31.0318 58.5938 31.3298 58.5938 31.6406C58.5938 31.9514 58.7172 32.2495 58.937 32.4693C59.1568 32.689 59.4548 32.8125 59.7656 32.8125H67.9688V38.6719C67.9688 38.9827 68.0922 39.2807 68.312 39.5005C68.5318 39.7203 68.8298 39.8438 69.1406 39.8438C69.4514 39.8438 69.7495 39.7203 69.9693 39.5005C70.189 39.2807 70.3125 38.9827 70.3125 38.6719V32.8125H71.4844C72.4168 32.8125 73.311 32.4421 73.9703 31.7828C74.6296 31.1235 75 30.2293 75 29.2969V26.9531C75 26.0207 74.6296 25.1265 73.9703 24.4672C73.311 23.8079 72.4168 23.4375 71.4844 23.4375ZM9.41016 23.4375L37.5 2.63086L65.5898 23.4375H9.41016Z" fill="#3F2355"/>
</svg>
